<svg xmlns="http://www.w3.org/2000/svg" viewBox="0 0 260 170" fill="none" stroke="#000" stroke-linecap="round" stroke-linejoin="round">
  <!-- Hand-drawn editorial line art: an open book, slightly angled, with a
       small flowering sprig. One colour (used as a CSS mask). -->
  <!-- left page -->
  <path d="M126 58 C 106 46, 72 42, 40 50 L 30 126 C 62 118, 98 122, 122 136" stroke-width="1.5"/>
  <path d="M126 58 L 122 136" stroke-width="1.4"/>
  <!-- right page -->
  <path d="M126 58 C 146 44, 180 40, 212 46 L 220 122 C 188 116, 150 120, 122 136" stroke-width="1.5"/>
  <!-- page edges / cover -->
  <path d="M30 126 L 27 132 C 60 124, 96 128, 121 142 C 146 128, 186 122, 224 128 L 220 122" stroke-width="1.2"/>
  <path d="M27 132 L 25 137 C 58 130, 94 134, 120 147 C 146 134, 188 128, 226 133 L 224 128" stroke-width="1"/>
  <path d="M40 50 L 36 56 M212 46 L 216 52" stroke-width=".7"/>
  <!-- text lines, left -->
  <path d="M50 64 C 68 60, 92 62, 112 68" stroke-width=".8"/>
  <path d="M48 74 C 66 70, 90 72, 111 78" stroke-width=".8"/>
  <path d="M46 84 C 64 80, 88 82, 110 88" stroke-width=".8"/>
  <path d="M45 94 C 62 90, 80 92, 96 96" stroke-width=".8"/>
  <path d="M43 104 C 62 100, 88 102, 108 108" stroke-width=".8"/>
  <path d="M42 114 C 58 111, 74 112, 88 115" stroke-width=".8"/>
  <!-- text lines, right -->
  <path d="M140 66 C 160 58, 184 56, 204 58" stroke-width=".8"/>
  <path d="M140 76 C 160 68, 184 66, 205 68" stroke-width=".8"/>
  <path d="M140 86 C 158 79, 176 77, 194 78" stroke-width=".8"/>
  <path d="M139 96 C 160 89, 186 87, 207 89" stroke-width=".8"/>
  <path d="M139 106 C 158 99, 180 97, 208 99" stroke-width=".8"/>
  <path d="M139 116 C 154 110, 170 108, 186 109" stroke-width=".8"/>
  <!-- ribbon marker, hanging from the spine -->
  <path d="M124 136 C 125 146, 123 154, 126 162 L 129 156 L 132 161 C 130 152, 131 144, 128 134" stroke-width=".9"/>
  <!-- flowering sprig rising behind the right page -->
  <path d="M214 60 C 218 44, 224 30, 236 16" stroke-width="1.2"/>
  <path d="M219 44 C 230 40, 240 34, 246 26" stroke-width="1"/>
  <path d="M221 40 C 212 36, 206 28, 206 18 C 215 22, 220 30, 221 40 Z" stroke-width="1"/>
  <path d="M221 40 C 216 32, 211 26, 207 19" stroke-width=".55"/>
  <path d="M226 32 C 234 30, 242 34, 245 42 C 236 43, 229 39, 226 32 Z" stroke-width="1"/>
  <path d="M216 54 C 224 54, 231 60, 232 68 C 224 66, 218 61, 216 54 Z" stroke-width="1"/>
  <ellipse cx="243.8" cy="12.0" rx="3.6" ry="2.1" transform="rotate(0 243.8 12.0)" stroke-width=".85"/>
  <ellipse cx="239.8" cy="17.5" rx="3.6" ry="2.1" transform="rotate(72 239.8 17.5)" stroke-width=".85"/>
  <ellipse cx="233.3" cy="15.4" rx="3.6" ry="2.1" transform="rotate(144 233.3 15.4)" stroke-width=".85"/>
  <ellipse cx="233.3" cy="8.6" rx="3.6" ry="2.1" transform="rotate(216 233.3 8.6)" stroke-width=".85"/>
  <ellipse cx="239.8" cy="6.5" rx="3.6" ry="2.1" transform="rotate(288 239.8 6.5)" stroke-width=".85"/>
  <circle cx="238" cy="12" r="1.8" stroke-width=".8"/>
  <ellipse cx="253.4" cy="23.0" rx="2.7" ry="1.6" transform="rotate(0 253.4 23.0)" stroke-width=".85"/>
  <ellipse cx="250.4" cy="27.2" rx="2.7" ry="1.6" transform="rotate(72 250.4 27.2)" stroke-width=".85"/>
  <ellipse cx="245.5" cy="25.6" rx="2.7" ry="1.6" transform="rotate(144 245.5 25.6)" stroke-width=".85"/>
  <ellipse cx="245.5" cy="20.4" rx="2.7" ry="1.6" transform="rotate(216 245.5 20.4)" stroke-width=".85"/>
  <ellipse cx="250.4" cy="18.8" rx="2.7" ry="1.6" transform="rotate(288 250.4 18.8)" stroke-width=".85"/>
  <circle cx="249" cy="23" r="1.3" stroke-width=".8"/>
</svg>
